<?xml version="1.0" encoding="UTF-8" standalone="no"?>
<!-- Created with Inkscape (http://www.inkscape.org/) -->

<svg
   version="1.1"
   id="svg1"
   width="274.31689"
   height="99.760559"
   viewBox="0 0 274.31689 99.760558"
   xmlns="http://www.w3.org/2000/svg"
   xmlns:svg="http://www.w3.org/2000/svg">
  <defs
     id="defs1" />
  <g
     id="g1"
     transform="translate(410.21946,-137.023)">
    <path
       style="fill:#ffffff"
       d="m -182.427,236.32679 c -0.12377,-0.32256 0.20802,-0.88087 0.92576,-1.55779 1.40755,-1.32749 1.53262,-2.80177 0.31868,-3.75665 -1.41265,-1.1112 -0.91459,-3.20742 0.8639,-3.63596 0.66991,-0.16143 1.04715,-0.0249 1.68,0.60794 1.67175,1.67174 0.74614,5.93174 -1.69309,7.7922 -1.56184,1.19126 -1.82296,1.25983 -2.09525,0.55026 z m -94.06994,-4.9463 c -1.31487,-0.39403 -2.0837,-1.20213 -2.31457,-2.4328 -0.49305,-2.62817 0.73838,-4.00855 5.06896,-5.68212 l 3.12,-1.20573 v -1.42971 c 0,-1.8232 -1.04213,-3.00061 -2.65586,-3.00061 -1.32868,0 -2.05842,0.74139 -2.19913,2.23422 -0.0837,0.88804 -0.28708,1.17786 -1.0019,1.42771 -1.21781,0.42567 -2.00299,-0.10915 -1.91882,-1.30697 0.0874,-1.24404 2.15819,-3.05706 4.27104,-3.73943 2.07967,-0.67166 2.9578,-0.67321 4.36027,-0.008 1.98632,0.94257 2.17176,1.54576 2.29275,7.45774 0.0596,2.91194 0.22414,5.41577 0.36565,5.56407 0.14151,0.14831 0.57755,0.0983 0.96897,-0.11123 0.57548,-0.30799 0.8038,-0.28878 1.19296,0.10038 0.42836,0.42836 0.33102,0.59011 -0.88534,1.47124 -1.66991,1.20967 -2.93537,1.27429 -4.00514,0.20452 -0.432,-0.432 -0.78545,-0.95832 -0.78545,-1.1696 0,-0.25064 -0.19662,-0.20621 -0.56576,0.12786 -0.71314,0.64539 -3.27751,1.81982 -3.91424,1.79266 -0.264,-0.0113 -0.89148,-0.14379 -1.39439,-0.2945 z m 4.32251,-2.25673 c 0.35533,-0.19016 0.84987,-0.83354 1.09897,-1.42972 0.47413,-1.13475 0.62698,-3.99 0.21291,-3.97696 -0.132,0.004 -1.176,0.47215 -2.32,1.04 -2.01788,1.00161 -2.0829,1.07216 -2.17694,2.36243 -0.079,1.08447 0.0375,1.42415 0.63121,1.84 0.85037,0.59563 1.65154,0.64716 2.55385,0.16425 z m 24.80605,1.9312 c -1.21503,-0.95574 -1.4904,-2.44038 -1.49239,-8.04612 l -0.002,-5.02069 -1.19734,-0.0993 c -1.62195,-0.13454 -1.69843,-0.88643 -0.17285,-1.69932 0.66061,-0.352 1.70689,-1.324 2.32505,-2.16 0.61817,-0.836 1.37621,-1.52 1.68454,-1.52 0.47184,0 0.5606,0.30399 0.5606,1.92 v 1.92 h 2.24 c 2.176,0 2.24,0.0229 2.24,0.8 0,0.77714 -0.064,0.8 -2.24,0.8 h -2.23978 v 5.0488 c 0,4.05164 0.0984,5.18926 0.49814,5.76 0.58822,0.8398 1.40763,0.90047 2.75452,0.20397 1.37547,-0.71129 1.94592,-0.11829 0.92825,0.96496 -1.67164,1.77939 -4.39502,2.3011 -5.88674,1.12771 z m 30.00319,0.0489 c -4.38005,-1.98937 -5.36679,-8.69433 -1.87914,-12.76886 2.7538,-3.2172 7.33387,-3.52104 9.53694,-0.63267 0.46174,0.60537 0.91272,1.55665 1.00218,2.11395 0.0895,0.55731 0.23105,1.44528 0.31465,1.97328 l 0.152,0.96 h -4.952 -4.95199 v 1.29589 c 0,4.253 4.91383,6.31136 8.19317,3.43205 0.91911,-0.80699 1.19367,-0.91284 1.41958,-0.54731 0.52672,0.85226 -1.43485,3.28015 -3.37276,4.17456 -1.63369,0.754 -3.80136,0.75364 -5.46263,-8.9e-4 z m 5.62263,-10.57347 c 0,-2.00899 -1.91569,-3.73214 -3.52534,-3.17102 -1.11589,0.389 -1.75178,1.08222 -2.38675,2.6019 l -0.49649,1.18829 h 3.20429 c 2.95503,0 3.20429,-0.0482 3.20429,-0.61917 z m 18.56,10.89371 c -0.75979,-0.21053 -0.80467,-0.35368 -0.89294,-2.84811 -0.0851,-2.4055 -0.0415,-2.62643 0.5191,-2.62643 0.46832,0 0.66093,0.30571 0.82022,1.30182 0.22921,1.43345 1.30224,2.72266 2.52062,3.02845 1.21421,0.30475 3.05019,-0.60859 3.31082,-1.64701 0.35998,-1.43426 -0.46331,-2.39507 -3.40977,-3.97931 -2.04002,-1.09687 -2.85032,-1.72838 -3.2848,-2.56 -0.66378,-1.27051 -0.5654,-3.0941 0.23262,-4.31203 1.19463,-1.82323 4.90886,-2.64678 7.34548,-1.62869 0.96279,0.40228 1.07921,0.59871 1.26011,2.12611 0.10962,0.92559 0.12314,1.80614 0.03,1.95677 -0.33056,0.53487 -1.02491,0.26277 -1.20985,-0.47412 -0.10326,-0.4114 -0.48932,-1.1314 -0.85792,-1.6 -0.53893,-0.68514 -0.93792,-0.85199 -2.03736,-0.85199 -1.57446,0 -2.42637,0.70533 -2.42637,2.00891 0,0.95307 1.10941,1.91367 3.71832,3.21956 2.33887,1.17073 3.32198,2.44861 3.32049,4.31608 -0.002,3.11442 -2.20907,4.86279 -6.07881,4.81652 -1.144,-0.0137 -2.44,-0.12462 -2.88,-0.24653 z m -104.18237,-0.91454 c 0.0531,-0.36733 0.45334,-0.61505 1.16324,-0.72 1.78445,-0.26381 1.8897,-0.7985 1.8897,-9.6 0,-8.67182 -0.10409,-9.21917 -1.84841,-9.71943 -0.69848,-0.20033 -1.01701,-0.47093 -0.95196,-0.80873 0.0859,-0.44592 0.81732,-0.49595 6.01379,-0.41136 6.08475,0.0991 7.4901,0.32089 9.07331,1.43228 1.79817,1.26229 2.58438,4.47219 1.79315,7.32091 -0.71586,2.57738 -4.23111,4.28248 -8.34905,4.0498 l -2.20139,-0.12443 v 3.40086 c 0,3.7115 0.19304,4.15387 2,4.58318 0.484,0.11499 0.88,0.42233 0.88,0.68298 0,0.39735 -0.77081,0.4739 -4.77169,0.4739 -4.36198,0 -4.76473,-0.0481 -4.69069,-0.56 z m 11.35306,-10.91901 c 2.04377,-1.03681 2.86835,-4.06785 1.80136,-6.62152 -0.72944,-1.7458 -3.54884,-2.79501 -5.85204,-2.17778 -0.70609,0.18923 -0.72,0.2857 -0.72,4.9925 v 4.79955 l 1.84,-0.21972 c 1.012,-0.12085 2.3308,-0.46871 2.93068,-0.77303 z m 22.42932,10.99897 c 0,-0.264 0.27983,-0.48 0.62185,-0.48 1.32914,0 1.61815,-1.10153 1.61815,-6.16753 v -4.74513 l -1.14215,-0.47722 c -0.62819,-0.26247 -1.08572,-0.64653 -1.01674,-0.85348 0.069,-0.20694 0.97467,-0.7052 2.01263,-1.10725 3.1803,-1.23187 3.02626,-1.23437 3.02626,0.049 0,1.25109 0.37398,1.45805 1.02185,0.56548 0.67398,-0.92854 1.93528,-1.66392 2.8539,-1.66392 1.18264,0 2.28425,0.97338 2.28425,2.01835 0,1.711 -1.28273,2.30638 -2.81126,1.30485 -0.72448,-0.4747 -0.85263,-0.47495 -1.57287,-0.003 -1.08949,0.71387 -1.45201,2.3348 -1.45409,6.50168 -0.002,3.33967 0.0463,3.61554 0.70942,4.08 0.39116,0.27398 0.96716,0.49815 1.28,0.49815 0.31284,0 0.5688,0.216 0.5688,0.48 0,0.40107 -0.65778,0.48 -4,0.48 -3.34223,0 -4,-0.0789 -4,-0.48 z m 24,0.0313 c 0,-0.24678 0.42693,-0.59752 0.94874,-0.77942 1.24334,-0.43344 1.33297,-0.90538 1.22312,-6.44031 l -0.0919,-4.62842 -1.04,-0.29787 c -0.572,-0.16382 -1.04,-0.48002 -1.04,-0.70265 0,-0.22264 1.10783,-0.77727 2.46185,-1.23252 2.56007,-0.86075 2.9617,-0.78917 2.97325,0.52989 0.006,0.68198 0.29505,0.7053 1.16756,0.0942 0.36578,-0.25621 1.51683,-0.70264 2.55787,-0.99208 2.50747,-0.69713 4.33743,-0.26718 5.25286,1.23417 0.54094,0.88717 0.62863,1.66407 0.65731,5.82374 0.0402,5.82547 0.14721,6.30431 1.49922,6.70617 0.56654,0.1684 1.03008,0.4924 1.03008,0.72 0,0.31545 -0.91292,0.41383 -3.84,0.41383 -3.08094,0 -3.84,-0.0887 -3.84,-0.4487 0,-0.24678 0.42693,-0.59752 0.94874,-0.77942 1.24586,-0.43432 1.3655,-1.02672 1.23736,-6.12669 -0.10022,-3.98913 -0.14797,-4.25706 -0.86156,-4.83419 -1.16453,-0.94186 -3.57128,-0.83328 -4.81999,0.21745 l -0.98455,0.82844 v 4.31259 c 0,2.37193 0.14575,4.58493 0.32388,4.91779 0.17814,0.33285 0.82614,0.69941 1.44,0.81457 0.6385,0.11978 1.11612,0.39955 1.11612,0.65377 0,0.3564 -0.82373,0.44439 -4.16,0.44439 -3.35546,0 -4.16,-0.0868 -4.16,-0.4487 z m 32.63999,0.0389 c 0,-0.22542 0.432,-0.57291 0.96,-0.77221 l 0.96,-0.36236 v -5.17559 -5.17559 l -0.96,-0.36236 c -1.58108,-0.5968 -1.17717,-1.25608 1.36399,-2.22637 1.27381,-0.48638 2.42401,-0.88238 2.55601,-0.88 0.132,0.002 0.24457,0.61632 0.25014,1.36432 l 0.0101,1.36 0.66308,-0.88896 c 0.36469,-0.48893 1.07298,-1.10093 1.57397,-1.36 2.47669,-1.28075 4.70802,0.47675 3.49142,2.75 -0.35957,0.67185 -1.57166,0.82805 -2.12576,0.27394 -0.18976,-0.18976 -0.75856,-0.29776 -1.264,-0.24 -1.34974,0.15424 -2.00769,1.74583 -2.24137,5.42187 -0.25886,4.07214 0.0503,5.15562 1.58081,5.53959 0.64987,0.16304 1.18157,0.48704 1.18157,0.72 0,0.32882 -0.89465,0.42356 -4,0.42356 -3.0379,0 -4,-0.0986 -4,-0.40984 z m 64.32,-0.51377 c -2.38614,-0.51552 -4.0724,-1.86273 -4.94472,-3.95048 -0.56846,-1.36051 -0.64828,-4.64209 -0.15604,-6.41466 0.43684,-1.57302 2.04474,-3.38156 3.65802,-4.11446 1.75046,-0.79521 5.01117,-0.77863 6.80274,0.0346 1.33891,0.60776 1.36,0.64238 1.36,2.23297 0,1.88927 -0.54519,2.13983 -1.28,0.58826 -1.45673,-3.07596 -5.4757,-3.05872 -7.29223,0.0313 -0.74982,1.27548 -0.86722,1.82411 -0.86373,4.03647 0.003,1.99394 0.14855,2.80781 0.6573,3.67891 0.90039,1.54168 2.51091,2.56073 4.04702,2.56073 1.59577,0 2.39687,-0.40571 3.68688,-1.86717 l 1.03524,-1.17283 0.005,1.49145 c 0.005,1.44225 -0.0406,1.51343 -1.37062,2.15727 -1.59043,0.76991 -3.73944,1.05446 -5.34462,0.70767 z m -256.62408,-0.38463 c -4.21436,-0.54524 -8.0888,-3.39676 -9.85393,-7.25231 -0.66886,-1.46097 -0.86143,-2.45334 -0.97607,-5.02978 l -0.14282,-3.20971 20.67845,0.0868 20.67846,0.0868 v -13.72493 c 0,-14.85671 -0.15397,-16.73129 -1.77933,-21.66319 -5.11663,-15.5257 -18.71026,-26.29881 -35.29458,-27.97137 -1.82265,-0.18381 -3.53578,-0.33421 -3.80695,-0.33421 -0.4169,0 -0.46254,-0.35835 -0.29551,-2.32 0.10864,-1.276 0.41929,-2.968 0.69032,-3.76 0.67935,-1.98514 2.60157,-4.43705 4.45513,-5.68278 3.15607,-2.12112 0.79721,-2.01851 44.21406,-1.92339 l 39.33686,0.0862 1.5627,0.72693 c 4.42322,2.05758 6.91959,6.122 6.91609,11.2603 l -10e-4,1.77277 -2.47879,0.093 c -18.35938,0.68882 -33.36566,13.25568 -37.90959,31.747 -0.61562,2.50526 -0.67893,3.86301 -0.80186,17.19762 l -0.13347,14.47761 20.70496,-0.0776 20.70496,-0.0776 -0.16604,3.25293 c -0.13086,2.56353 -0.33845,3.62949 -0.97952,5.02978 -1.77585,3.87897 -5.43641,6.5068 -10.03953,7.20715 -2.75341,0.41893 -72.04599,0.42071 -75.28279,0.002 z m 38.58061,-61.8118 c 2.40181,-4.76223 8.15028,-11.64206 12.39139,-14.83016 l 1.8755,-1.40984 -15.15171,0.0101 -15.1517,0.0101 0.96,0.69344 c 1.9676,1.42128 7.00898,6.57463 8.94198,9.14058 1.09975,1.45986 2.68298,3.87186 3.51828,5.36 0.83531,1.48813 1.57504,2.7057 1.64385,2.7057 0.0688,0 0.50639,-0.756 0.97241,-1.68 z m 187.64347,61.73136 c 0,-0.23574 0.36,-0.59266 0.8,-0.79313 l 0.8,-0.36451 v -5.744 c 0,-4.79516 -0.0831,-5.82707 -0.50285,-6.24686 -0.27657,-0.27657 -0.63657,-0.50286 -0.8,-0.50286 -0.16343,0 -0.29715,-0.216 -0.29715,-0.48 0,-0.39088 0.53124,-0.48 2.86112,-0.48 2.88134,0 3.91672,0.39053 2.48178,0.93609 -0.42658,0.16218 -0.86725,0.53369 -0.97925,0.82557 -0.38889,1.01342 -0.23065,11.20333 0.18035,11.61434 0.46998,0.46998 3.26815,0.50706 4.11373,0.0545 0.33861,-0.18121 0.84147,-0.76617 1.11747,-1.2999 0.31885,-0.61657 0.69926,-0.92975 1.04331,-0.85891 0.56953,0.11727 0.57339,0.46773 0.0282,2.5683 l -0.31142,1.2 h -5.26767 c -4.18848,0 -5.26767,-0.0878 -5.26767,-0.42864 z m 12.48,-0.0514 c 0,-0.264 0.21957,-0.48 0.48792,-0.48 0.83778,0 1.11221,-1.49044 1.10856,-6.02083 -0.005,-5.6861 -0.17834,-6.73231 -1.15909,-6.97846 -0.41656,-0.10455 -0.75739,-0.39048 -0.75739,-0.6354 0,-0.34916 0.65637,-0.44531 3.04,-0.44531 2.32698,0 3.04,0.10053 3.04,0.42864 0,0.23574 -0.36318,0.59411 -0.80707,0.79636 l -0.80707,0.36773 0.0871,6.00363 0.0871,6.00364 1.45955,0.0951 c 1.91652,0.12483 3.08236,-0.35041 3.75368,-1.53014 0.88808,-1.56066 1.47086,-1.25994 1.24552,0.6427 -0.10472,0.8842 -0.27728,1.7482 -0.38346,1.92 -0.1125,0.18203 -2.3216,0.31238 -5.29417,0.31238 -4.32099,0 -5.10112,-0.0734 -5.10112,-0.48 z m -249.59999,-46.88 v -24.64 l 2.16,0.004 c 2.79405,0.005 7.24111,0.93657 10.50486,2.19953 8.04732,3.11404 15.07179,9.6671 18.7296,17.47266 2.48633,5.30568 2.6327,6.2911 2.76926,18.6436 l 0.12118,10.96 h -17.14245 -17.14245 z m 22.08,6.30723 c 0,-2.11644 -0.70127,-4.85792 -1.79452,-7.01534 -1.0141,-2.00123 -3.77211,-4.9655 -5.54933,-5.96436 l -1.29615,-0.72848 v 7.70048 7.70047 h 4.32 4.32 z m 41.04651,7.53277 c 0.15737,-12.28802 0.31281,-13.27724 2.97171,-18.91248 3.90683,-8.28008 10.71912,-14.51963 19.25265,-17.63398 3.13461,-1.14399 7.17086,-1.93354 9.88448,-1.93354 h 2.04465 v 24.64 24.64 h -17.1459 -17.1459 z m 20.71349,-13.36 c 0,-4.136 -0.10676,-7.52 -0.23723,-7.52 -0.71942,0 -3.80578,2.58223 -5.02511,4.2043 -1.87525,2.49462 -2.76466,4.94388 -2.97617,8.1957 l -0.1717,2.64 h 4.2051 4.20511 z m 54.36732,18.63578 c -3.13983,-2.09132 -2.63612,-6.42393 0.95293,-8.19668 0.63786,-0.31506 2.64349,-1.12172 4.45695,-1.79258 l 3.2972,-1.21974 -0.21036,-1.79339 c -0.28638,-2.44156 -1.47242,-3.71807 -3.40741,-3.66733 -1.70667,0.0447 -2.97626,1.3158 -2.699,2.7021 0.15101,0.75505 0.0129,0.98044 -0.94874,1.54779 -1.40557,0.82931 -2.25032,0.84353 -2.67763,0.0451 -0.59087,-1.10404 -0.35557,-1.92897 0.95608,-3.35194 1.82965,-1.98494 4.02016,-2.87997 7.08805,-2.89615 1.99235,-0.0105 2.62598,0.11203 3.36,0.6498 1.80682,1.32373 2.02312,2.25968 2.02848,8.77725 0.003,3.256 0.0917,6.244 0.19782,6.64 0.22741,0.8486 0.9661,0.92299 1.99676,0.20108 0.67931,-0.4758 0.78342,-0.47635 1.25318,-0.007 0.46976,0.46976 0.45078,0.57783 -0.2285,1.30089 -2.22,2.36308 -5.49334,2.33344 -6.71987,-0.0608 l -0.37163,-0.72546 -1.04779,0.79919 c -2.37154,1.80885 -5.46489,2.25417 -7.27652,1.04752 z m 6.43268,-2.24495 c 1.24517,-0.62217 1.91893,-2.31316 1.9195,-4.8175 2.7e-4,-1.20266 -0.1075,-2.13723 -0.2395,-2.0768 -0.132,0.0604 -1.1489,0.45496 -2.25978,0.87675 -3.81989,1.45039 -4.93691,3.51927 -2.96484,5.49134 1.021,1.02099 2.20316,1.19649 3.54462,0.52621 z m 16.14218,1.84917 c -0.22027,-0.528 -0.90423,-2.4 -1.51989,-4.16 -3.733,-10.67151 -4.69235,-12.64 -6.16014,-12.64 -0.25418,0 -0.46215,-0.288 -0.46215,-0.64 0,-0.60952 0.21333,-0.64 4.48,-0.64 4.23204,0 4.48,0.0346 4.48,0.6255 0,0.46188 -0.29391,0.68064 -1.12354,0.83628 -0.61794,0.11592 -1.2001,0.33465 -1.29367,0.48607 -0.1433,0.23185 3.4154,10.4573 3.92808,11.28683 0.0939,0.15196 1.02383,-1.77391 2.06647,-4.27969 1.43479,-3.44822 1.84683,-4.77859 1.69462,-5.47158 -0.22144,-1.00823 -1.52207,-2.20341 -2.3978,-2.20341 -0.30773,0 -0.63483,-0.288 -0.72688,-0.64 -0.16184,-0.61886 -0.01,-0.64 4.60267,-0.64 4.42006,0 4.77005,0.0432 4.77005,0.58935 0,0.41032 -0.38883,0.70584 -1.28,0.97284 -0.704,0.21093 -1.28,0.47898 -1.28,0.59567 0,0.1167 0.88656,2.71442 1.97015,5.77272 1.93644,5.46541 1.97723,5.54373 2.3837,4.577 0.90139,-2.14376 3.32615,-9.39026 3.32615,-9.94033 0,-0.3619 -0.36575,-0.71214 -0.96,-0.9193 -0.64606,-0.22521 -0.96,-0.5494 -0.96,-0.9913 0,-0.62051 0.18494,-0.65665 3.36,-0.65665 2.99136,0 3.35864,0.0614 3.34767,0.56 -0.007,0.308 -0.47442,0.85074 -1.03919,1.20608 -1.18275,0.74417 -2.14593,2.81536 -5.38951,11.58951 l -2.03897,5.51558 -0.99771,0.004 c -0.98057,0.004 -1.01857,-0.0547 -2.21224,-3.43559 -0.668,-1.892 -1.63889,-4.56451 -2.15753,-5.9389 l -0.94298,-2.4989 -0.70232,1.5389 c -0.38628,0.84639 -1.55204,3.58278 -2.59059,6.08085 -1.84824,4.44567 -1.90826,4.54064 -2.83111,4.48 -0.71667,-0.0471 -1.0389,-0.29222 -1.34334,-1.02195 z m -47.82218,-0.16 c 0,-0.84171 0.11217,-0.96 0.9104,-0.96 0.51914,0 1.17239,-0.28949 1.52,-0.6736 0.57365,-0.63387 0.6096,-1.29899 0.6096,-11.28 0,-11.72678 -0.0228,-11.87159 -1.92389,-12.22824 -0.96891,-0.18177 -1.11611,-0.3313 -1.11611,-1.13377 v -0.92439 h 5.44 5.44 v 0.89854 c 0,0.79582 -0.15493,0.933 -1.35521,1.2 -0.94979,0.21128 -1.47489,0.54078 -1.75528,1.10146 -0.2944,0.58869 -0.40132,3.46481 -0.4048,10.8888 -0.004,8.81108 0.0613,10.18308 0.5167,10.83322 0.5019,0.71656 0.65515,0.74018 4.09438,0.631 4.20723,-0.13355 4.82636,-0.42227 6.25741,-2.91803 0.52824,-0.92124 1.00171,-1.79455 1.05217,-1.94068 0.0505,-0.14613 0.48968,-0.0844 0.97605,0.13723 0.99925,0.45529 0.99973,0.4423 -0.17861,4.84846 l -0.66322,2.48 h -9.7098 -9.70979 z m 46.12215,-26.26483 c -1.90827,-0.37503 -4.05011,-1.45545 -4.62518,-2.33312 -0.47038,-0.71789 -0.64134,-1.6112 -0.5724,-2.99091 0.0494,-0.98921 1.78574,-2.86835 3.08415,-3.33787 l 1.08488,-0.39229 -0.905,-0.55036 c -1.86361,-1.13333 -1.8156,-3.76346 0.0966,-5.2892 l 1.071,-0.85458 -1.09443,-0.96092 c -1.54976,-1.36071 -2.02173,-2.46298 -2.02173,-4.72167 0,-2.44008 0.60825,-3.78024 2.45254,-5.40364 2.3013,-2.02569 5.73621,-2.44501 8.9678,-1.09477 1.19332,0.4986 3.6409,0.46802 5.45966,-0.0682 0.66298,-0.19547 0.72,-0.10978 0.72,1.08201 v 1.2943 l -1.75206,0.2189 c -1.52495,0.19053 -1.71399,0.29004 -1.45837,0.76768 0.16154,0.30182 0.38979,1.27313 0.50723,2.15847 0.34464,2.59801 -1.24739,5.38692 -3.85015,6.7447 -0.5493,0.28655 -2.19589,0.58458 -3.81377,0.69028 -2.64199,0.17262 -2.89496,0.25025 -3.51109,1.07755 -0.5143,0.69056 -0.58623,1.01517 -0.31911,1.44 0.29543,0.46985 1.0969,0.57193 5.59109,0.71215 5.60315,0.17481 6.0747,0.29718 7.45171,1.93366 0.68678,0.81619 0.83452,1.31623 0.83452,2.82456 0,3.82456 -3.00227,6.34262 -8.42316,7.06468 -2.80725,0.37393 -3.01637,0.37345 -4.97469,-0.0114 z m 6.4751,-2.09011 c 3.33816,-1.13742 4.82968,-4.00789 2.87959,-5.54183 -0.72686,-0.57175 -1.28989,-0.66323 -4.08211,-0.66323 -5.04659,0 -6.91473,0.86344 -6.91473,3.19591 0,2.79371 4.19045,4.34715 8.11725,3.00915 z m -1.11465,-15.04688 c 1.65905,-1.16205 2.18328,-5.12494 1.01757,-7.69236 -0.69249,-1.52519 -1.43287,-2.02582 -2.99598,-2.02582 -2.11813,0 -3.42419,1.95902 -3.42419,5.1361 0,3.58561 3.08714,6.20389 5.4026,4.58208 z m 48.82285,16.69637 c -0.78161,-0.78161 -1.00275,-1.89704 -0.52516,-2.6489 0.16407,-0.2583 0.94523,-0.3687 2.26429,-0.32 1.86122,0.0687 2.06771,0.007 2.72531,-0.81653 0.81861,-1.025 1.79401,-3.5603 1.79169,-4.65707 -0.002,-1.16231 -6.63953,-16.77654 -7.40126,-17.41205 -0.36918,-0.308 -0.94327,-0.56 -1.27578,-0.56 -0.3859,0 -0.60455,-0.22552 -0.60455,-0.62356 0,-0.58498 0.28712,-0.62952 4.6405,-0.72 4.55768,-0.0947 4.64049,-0.0842 4.64,0.58795 -3.8e-4,0.53058 -0.25597,0.73231 -1.13731,0.89765 -0.62525,0.1173 -1.21083,0.40614 -1.30129,0.64187 -0.0905,0.23572 0.91703,3.14062 2.23886,6.45533 1.32182,3.3147 2.47525,5.81389 2.56316,5.55375 0.0879,-0.26015 0.76496,-2.20099 1.50453,-4.31299 1.82625,-5.21522 2.53336,-7.57819 2.35441,-7.86775 -0.0826,-0.13365 -0.58054,-0.33753 -1.10653,-0.45305 -0.6433,-0.1413 -0.95633,-0.40468 -0.95633,-0.80466 0,-0.5374 0.33878,-0.60423 3.52066,-0.69458 3.4362,-0.0976 3.52063,-0.0832 3.52,0.59848 -3.7e-4,0.397 -0.25502,0.77917 -0.59004,0.8855 -1.49298,0.47385 -1.97953,1.52289 -7.71531,16.6348 -1.26479,3.33231 -2.52249,6.50031 -2.7949,7.04 -1.55009,3.07112 -4.62403,4.32673 -6.35495,2.59581 z m -72.14545,-8.68334 c -1.61363,-0.697 -3.47915,-2.60366 -4.35513,-4.45117 -1.01868,-2.14848 -1.06742,-6.04736 -0.10767,-8.61252 0.7748,-2.07083 3.07466,-4.75605 4.84866,-5.66108 4.96265,-2.53175 10.46452,0.63367 10.48711,6.0336 l 0.007,1.68 h -6.12445 -6.12444 l 0.17411,1.92013 c 0.30885,3.4061 2.11963,5.54527 5.26945,6.22507 1.48557,0.32063 4.44817,-0.61882 5.6075,-1.77814 0.72517,-0.72517 1.04757,-0.86455 1.37373,-0.59386 0.35058,0.29096 0.31906,0.52983 -0.17773,1.34674 -0.9898,1.62758 -2.61548,3.17646 -3.98872,3.80026 -1.61122,0.73191 -5.29306,0.78053 -6.88945,0.091 z m 7.16118,-13.81117 c -0.53996,-2.25191 -2.08763,-3.92 -3.63702,-3.92 -1.66689,0 -3.65516,1.88123 -4.31216,4.08 l -0.21513,0.72 h 4.18766 4.18766 z m 28.51882,13.8712 c -1.60899,-0.71023 -2.18722,-1.62602 -2.33738,-3.70194 -0.22589,-3.12294 0.71169,-4.02869 6.65738,-6.43137 l 3.68,-1.48711 -0.004,-1.99555 c -0.004,-1.84521 -0.0828,-2.0656 -1.04505,-2.92539 -1.15347,-1.03062 -2.20446,-1.16662 -3.56769,-0.46167 -1.00804,0.52128 -1.30288,1.06807 -1.30288,2.41621 0,1.14841 -1.51292,2.32494 -2.79934,2.17694 -0.79231,-0.0911 -0.89071,-0.24133 -0.9808,-1.49688 -0.0925,-1.28905 0.009,-1.50013 1.32985,-2.76573 3.9654,-3.79951 10.93229,-3.56369 12.03514,0.40739 0.18237,0.65665 0.33238,4.0294 0.33336,7.49502 0.001,3.72642 0.1287,6.37955 0.31239,6.49307 0.17083,0.10558 0.76473,-0.0429 1.31978,-0.3299 0.91687,-0.47413 1.05511,-0.47593 1.51137,-0.0197 0.45626,0.45626 0.43067,0.57875 -0.27978,1.33919 -1.10497,1.18273 -2.30921,1.73619 -3.77764,1.73619 -1.02245,0 -1.42758,-0.19031 -2.09589,-0.98455 -0.45564,-0.5415 -0.82844,-1.21645 -0.82844,-1.49987 0,-0.39876 -0.19904,-0.3288 -0.88,0.30935 -2.10404,1.97172 -5.10944,2.68438 -7.28,1.72627 z m 6.39562,-2.80493 c 0.48506,-0.38155 1.08048,-1.16892 1.32315,-1.74972 0.41434,-0.99164 0.63712,-5.23655 0.27483,-5.23655 -0.59692,0 -5.86992,2.9446 -6.03272,3.36885 -0.11049,0.28792 -0.20088,1.07727 -0.20088,1.7541 0,2.27706 2.7198,3.37031 4.63562,1.86332 z m 14.3067,2.42486 c -3.32702,-1.65793 -4.70495,-4.44707 -4.48366,-9.07561 0.10803,-2.25954 0.30614,-3.13489 1.03593,-4.5773 2.16238,-4.27386 6.14554,-6.27993 10.62338,-5.35033 2.33559,0.48486 4.37348,2.26058 4.06095,3.53852 -0.28933,1.18309 -1.06303,1.89359 -2.06202,1.89359 -0.72165,0 -1.02811,-0.24195 -1.51995,-1.2 -1.67071,-3.25437 -5.41489,-2.96464 -7.39696,0.57239 -0.68903,1.22959 -0.79968,1.8271 -0.7977,4.30761 0.003,3.35922 0.65349,4.96983 2.61093,6.46146 1.02276,0.77938 1.45813,0.89659 3.28296,0.88381 2.27219,-0.0159 4.48293,-0.88811 5.21261,-2.05651 0.28559,-0.45731 0.49139,-0.52779 0.79802,-0.27331 0.64997,0.53943 0.50262,0.95537 -0.93094,2.62802 -2.63792,3.07787 -6.91747,3.99979 -10.43355,2.24766 z m -84.86232,-0.56048 c 0,-0.59647 0.26006,-0.82726 1.27478,-1.13128 0.70112,-0.21006 1.42112,-0.65539 1.6,-0.98961 0.44435,-0.83029 0.43983,-21.59767 -0.005,-22.42863 -0.20221,-0.37783 -0.8221,-0.69547 -1.6,-0.81986 -1.06592,-0.17044 -1.2699,-0.325 -1.2699,-0.96216 v -0.75911 h 5.6 5.6 v 0.76202 c 0,0.6369 -0.23818,0.82198 -1.4507,1.1273 -1.08202,0.27245 -1.5293,0.57203 -1.76,1.17882 -0.17552,0.46164 -0.3093,5.21227 -0.3093,10.9831 0,12.3279 -0.40849,11.35735 4.7065,11.18228 4.12438,-0.14117 4.93732,-0.56275 6.36914,-3.30296 0.98143,-1.87826 1.096,-1.9581 2.06539,-1.4393 0.77651,0.41557 0.77264,0.63946 -0.0748,4.3286 l -0.69375,3.02014 h -10.02611 -10.02625 z"
       id="path1" />
  </g>
</svg>
